# xmcd
#
# Track frame offsets: 
#        182
#        14745
#        32525
#        51682
#        69930
#        88455
#        106032
#        118837
#        134500
#        150382
#        165392
#        185840
#        200155
#        221300
#        239382
#        259132
#        278320
#        296232
#
# Disc length: 4206 seconds
#
# Revision: 2
# Processed by: cddbd v1.5.2PL0 Copyright (c) Steve Scherf et al.
# Submitted via: ExactAudioCopy v0.95a5
#
DISCID=10106c12
DTITLE=Engelbert - Nur das Beste (Die groessten Hits)
DYEAR=2002
DGENRE=Pop
TTITLE0=The spanish night is over
TTITLE1=I love you
TTITLE2=On the wings of a silver bird
TTITLE3=Lady Lolita
TTITLE4=I can't stop loving you
TTITLE5=Portofino
TTITLE6=Are you lonesome tonight
TTITLE7=Please release me
TTITLE8=This time tomorrow
TTITLE9=Tokyo tears
TTITLE10=Love you back to sleep
TTITLE11=Dream of me
TTITLE12=One and one made three
TTITLE13=Goodbye Maria
TTITLE14=My heart
TTITLE15=What are you waiting for
TTITLE16=Then you walked into my life
TTITLE17=One world
EXTD=
EXTT0=
EXTT1=
EXTT2=
EXTT3=
EXTT4=
EXTT5=
EXTT6=
EXTT7=
EXTT8=
EXTT9=
EXTT10=
EXTT11=
EXTT12=
EXTT13=
EXTT14=
EXTT15=
EXTT16=
EXTT17=
PLAYORDER=
